# xmcd CD database file
#
# Track frame offsets:
#	150
#	23062
#	44755
#	66161
#	102676
#	126791
#	138980
#	151847
#	169161
#	200204
#	225508
#	260125
#	291499
#	298769
#	328294
#
# Disc length: 4603 seconds
#
# Revision: 0
# Processed by: cddbd v1.5.2PL0 Copyright (c) Steve Scherf et al.
# Submitted via: CDex 1.51
#
DISCID=f611f90f
DTITLE=Triologue - Snö
DYEAR=2009
DGENRE=Jazz
TTITLE0=Hot Spot
TTITLE1=Gratulation
TTITLE2=Döner Agogo
TTITLE3=Snö
TTITLE4=Dindür
TTITLE5=Liebesleid und Lust
TTITLE6=Fading Tides
TTITLE7=Landskapet i Aftensol
TTITLE8=Philodendron
TTITLE9=Barockmodul
TTITLE10=Botswana Blues
TTITLE11=Looky Looky
TTITLE12=Knochen Einmaleins
TTITLE13=Schwarzer Aspergillus
TTITLE14=12ton Siebenachtel
EXTD=YEAR: 2009
EXTT0=
EXTT1=
EXTT2=
EXTT3=
EXTT4=
EXTT5=
EXTT6=
EXTT7=
EXTT8=
EXTT9=
EXTT10=
EXTT11=
EXTT12=
EXTT13=
EXTT14=
PLAYORDER=
